<svg width="17" height="17" viewBox="0 0 14 14" fill="none" xmlns="http://www.w3.org/2000/svg">
<!--<path d="M2 0.5H12C12.8284 0.5 13.5 1.17157 13.5 2V12C13.5 12.8284 12.8284 13.5 12 13.5H2C1.17157 13.5 0.5 12.8284 0.5 12V2C0.5 1.17157 1.17157 0.5 2 0.5Z" fill="#F2F2F2" stroke="#333333"/>-->
<path d="M10.6322 6.13051L7.10493 9.63429C6.85942 9.87868 6.53803 10 6.21638 10C5.89499 10 5.57335 9.87868 5.32809 9.63429L3.36807 7.68744C2.87731 7.20042 2.87731 6.4101 3.36807 5.92257C3.85883 5.43505 4.65415 5.43505 5.14491 5.92257L6.21613 6.98699L8.85462 4.36564C9.34538 3.87812 10.1407 3.87812 10.6315 4.36564C11.1227 4.85242 11.1227 5.64274 10.6322 6.13051Z" fill="#333333"/>
</svg>
